<svg aria-hidden="true" style="position: absolute; width: 0; height: 0; overflow: hidden;" version="1.1" xmlns="http://www.w3.org/2000/svg" xmlns:xlink="http://www.w3.org/1999/xlink">
<defs>
<symbol id="icon-Logo" viewBox="0 0 30 32">
<path fill="#f8d24e" style="fill: var(--color1, #f8d24e)" d="M15.226 17.082c1.415-3.784-1.515-5.855-3.457-7.217-0.371-0.278-0.742-0.538-1.044-0.776-0.525-0.438-0.921-1.015-1.133-1.674l-0.007-0.026c-0.104-0.319-0.163-0.686-0.163-1.067 0-0.345 0.049-0.679 0.141-0.995l-0.006 0.025c0.009-0.031 0.014-0.067 0.014-0.105 0-0.115-0.050-0.219-0.129-0.29l-0-0c-0.071-0.065-0.167-0.105-0.272-0.105-0.049 0-0.096 0.009-0.14 0.025l0.003-0.001c-0.69 0.273-1.285 0.63-1.811 1.067l0.011-0.009c-0.512 0.391-0.925 0.885-1.215 1.452l-0.011 0.024c-0.277 0.541-0.44 1.18-0.442 1.857v0.001c-0.367 0.287-0.684 0.613-0.952 0.978l-0.010 0.014c-0.445 0.593-0.713 1.341-0.713 2.151 0 0.061 0.002 0.121 0.004 0.181l-0-0.008c-0.58 0.526-1.023 1.192-1.276 1.945l-0.009 0.032c-0.143 0.422-0.226 0.908-0.226 1.414 0 0.33 0.035 0.652 0.102 0.962l-0.005-0.030c-0.236 0.141-0.42 0.354-0.521 0.608-0.056 0.135-0.088 0.292-0.088 0.457 0 0.12 0.017 0.237 0.050 0.347l-0.002-0.009c0.075 0.262 0.235 0.493 0.456 0.657s0.49 0.252 0.767 0.25h0.026v2.151c0 0.219 0.089 0.428 0.245 0.583s0.369 0.241 0.591 0.241h0.65l1.058 9.040c0.022 0.201 0.118 0.387 0.271 0.522s0.351 0.21 0.556 0.21h4.404c0.206-0 0.404-0.075 0.557-0.21s0.251-0.32 0.275-0.522l1.058-9.040h0.65c0.222 0 0.434-0.087 0.591-0.241 0.151-0.148 0.244-0.354 0.245-0.582v-2.152h0.026c0.001 0 0.001 0 0.002 0 0.348 0 0.663-0.139 0.894-0.365l-0 0c0.237-0.234 0.371-0.551 0.371-0.883 0-0.004 0-0.009 0-0.014 0-0.343-0.142-0.654-0.371-0.875l-0-0-0.011 0.003zM5.695 10.216c0.535 1.98 2.599 2.759 4.482 3.455 0.060 0.037 0.134 0.059 0.212 0.059 0.109 0 0.207-0.042 0.281-0.111l-0 0c0.076-0.073 0.124-0.175 0.124-0.289 0-0.010-0-0.019-0.001-0.028l0 0.001c-0.009-0.123-0.072-0.229-0.166-0.295l-0.001-0.001c-0.046-0.033-0.101-0.057-0.16-0.068l-0.003-0c-2.027-0.758-3.939-1.464-4.084-3.488-0.004-0.061-0.006-0.131-0.006-0.203 0-0.514 0.116-1.001 0.324-1.436l-0.009 0.020c0.246-0.518 0.601-0.949 1.038-1.277l0.009-0.006c0.283-0.231 0.586-0.438 0.906-0.615-0.010 0.114-0.015 0.247-0.015 0.381s0.006 0.267 0.017 0.398l-0.001-0.017c0.047 0.615 0.216 1.181 0.484 1.686l-0.011-0.023c0.281 0.531 0.648 0.98 1.087 1.343l0.007 0.006c0.308 0.26 0.691 0.527 1.114 0.812 0.977 0.692 2.087 1.465 2.792 2.511 0.441 0.619 0.704 1.39 0.704 2.223 0 0.538-0.11 1.051-0.309 1.517l0.010-0.025h-1.641c-3.382 0-7.27-0.922-8.038-3.506-0.072-0.242-0.113-0.519-0.113-0.807 0-0.292 0.043-0.573 0.122-0.839l-0.005 0.021c0.164-0.551 0.468-1.018 0.87-1.377l0.003-0.003-0.019-0.018zM8.74 22.693l1.24 1.222-1.241 1.222-1.24-1.23 1.24-1.215zM11.584 25.903l-1.025 1.010-1.24-1.222 1.241-1.219 1.076 1.057-0.052 0.374zM8.74 28.706l-1.241-1.222 1.241-1.222 1.24 1.222-1.241 1.222zM8.172 25.698l-1.241 1.222-1.032-1.018-0.044-0.366 1.077-1.057 1.24 1.219zM6.36 27.484l-0.249 0.245-0.063-0.556 0.312 0.311zM6.23 28.735l0.702-0.692 1.363 1.354c0.007 0.028 0.016 0.054 0.026 0.081h-2.005l-0.086-0.743zM10.552 28.044l0.702 0.692-0.086 0.732h-2.060l1.444-1.424zM11.368 27.729l-0.249-0.245 0.316-0.311-0.067 0.556zM11.74 24.53l-0.62-0.622 0.787-0.776-0.167 1.398zM10.548 23.352l-1.177-1.156h2.354l-1.177 1.157zM6.928 23.352l-1.177-1.156h2.354l-1.177 1.157zM10.938 31.169h-4.4c-0.013-0.002-0.024-0.012-0.026-0.025l-0-0-0.104-0.879h4.664l-0.1 0.879c-0.002 0.015-0.014 0.026-0.029 0.026-0 0-0 0-0 0v0h-0.003zM14.343 18.418h-1.292c-0.011-0.001-0.025-0.002-0.038-0.002-0.105 0-0.201 0.039-0.273 0.104l0-0c-0.081 0.073-0.132 0.178-0.133 0.295v0c0 0 0 0 0 0 0 0.117 0.051 0.223 0.133 0.295l0 0c0.071 0.064 0.166 0.103 0.271 0.103 0.014 0 0.028-0.001 0.042-0.002l-0.002 0h0.46v2.152c-0.001 0.008-0.005 0.014-0.010 0.019l-0 0c-0.005 0.004-0.012 0.007-0.019 0.007-0 0-0.001 0-0.001 0h-9.494c-0 0-0 0-0.001 0-0.007 0-0.014-0.003-0.019-0.007l0 0c-0.005-0.005-0.009-0.011-0.010-0.019v-2.152h7.355c0.104-0.010 0.195-0.058 0.261-0.129l0-0c0.065-0.070 0.105-0.165 0.105-0.268s-0.040-0.198-0.105-0.269l0 0c-0.066-0.071-0.157-0.119-0.259-0.128l-0.002-0h-8.168c-0.012 0.001-0.026 0.002-0.041 0.002-0.12 0-0.229-0.045-0.312-0.119l0 0c-0.092-0.083-0.149-0.202-0.15-0.335v-0c0-0 0-0 0-0.001 0-0.133 0.058-0.252 0.149-0.334l0-0c0.082-0.074 0.191-0.119 0.31-0.119 0.015 0 0.029 0.001 0.044 0.002l-0.002-0h0.843c0.104-0.010 0.195-0.058 0.261-0.129l0-0c0.065-0.070 0.105-0.165 0.105-0.268s-0.040-0.198-0.105-0.269l0 0c-0.066-0.071-0.157-0.119-0.259-0.129l-0.002-0h-0.742c-0.044-0.218-0.069-0.469-0.069-0.726 0-0.339 0.044-0.667 0.125-0.981l-0.006 0.027c0.15-0.579 0.412-1.083 0.764-1.511l-0.005 0.007c0.26 0.798 0.928 1.889 2.599 2.756 1.57 0.808 3.65 1.222 6.178 1.222h1.485c0.012-0.001 0.027-0.002 0.041-0.002 0.12 0 0.229 0.045 0.311 0.119l-0-0c0.092 0.083 0.149 0.202 0.15 0.335v0c0 0 0 0.001 0 0.001 0 0.133-0.058 0.252-0.149 0.334l-0 0c-0.082 0.074-0.191 0.119-0.31 0.119-0.015 0-0.029-0.001-0.044-0.002l0.002 0h0.026z"></path>
<path fill="#f8d24e" style="fill: var(--color1, #f8d24e)" d="M16.964 29.152l-0.293 0.448 0.006 0.004 0.287-0.453zM20.113 29.304l0.535-0.012-0.014-0.62-0.611 0.104 0.090 0.528zM20.15 30.951l0.136 0.518 0.409-0.108-0.010-0.422-0.535 0.012zM16.017 31.030l0.121-0.522-0.003-0.001-0.117 0.523zM13.978 30.119l0.347-0.409h-0.001l-0.346 0.409zM13.24 28.446l0.536 0.003v-0.003h-0.536zM13.496 27.274l-0.48-0.236v0.001l0.48 0.235zM15.138 25.872l0.19 0.501 0.002-0.001-0.192-0.5zM20.401 25.736l0.534 0.041 0.035-0.452-0.44-0.109-0.129 0.52zM20.27 27.415l-0.099 0.526 0.587 0.111 0.046-0.596-0.534-0.042zM18.842 26.728c-0.804 0-1.48 0.086-1.973 0.303-0.253 0.111-0.483 0.268-0.651 0.489-0.159 0.209-0.255 0.473-0.255 0.76 0 0.005 0 0.010 0 0.015v-0.001h1.071c-0-0.004-0-0.008-0-0.013 0-0.043 0.014-0.083 0.038-0.115l-0 0c0.028-0.037 0.091-0.095 0.228-0.156 0.288-0.127 0.783-0.212 1.542-0.212v-1.072zM15.963 28.294c0 0.551 0.247 1.006 0.709 1.307l0.585-0.897c-0.16-0.103-0.223-0.221-0.223-0.409h-1.071zM16.677 29.604c0.438 0.277 1.015 0.381 1.663 0.381v-1.071c-0.559 0-0.899-0.095-1.089-0.215l-0.574 0.905zM18.34 29.985c0.635 0 1.256-0.051 1.863-0.154l-0.179-1.056c-0.5 0.088-1.077 0.139-1.665 0.139-0.007 0-0.013 0-0.020-0h0.001v1.071zM19.578 29.315l0.036 1.648 1.071-0.024-0.037-1.647-1.071 0.024zM20.013 30.433c-0.612 0.161-1.288 0.244-2.029 0.244v1.071c0.821 0 1.589-0.092 2.302-0.279l-0.273-1.036zM17.984 30.677c-0.757 0-1.369-0.060-1.846-0.169l-0.241 1.044c0.582 0.134 1.281 0.197 2.087 0.197v-1.071zM16.134 30.507c-0.511-0.114-0.881-0.236-1.127-0.356l-0.47 0.962c0.353 0.172 0.814 0.316 1.363 0.439l0.234-1.046zM15.008 30.151c-0.26-0.126-0.485-0.273-0.688-0.444l0.005 0.004-0.693 0.817c0.263 0.222 0.561 0.417 0.881 0.574l0.026 0.011 0.47-0.962zM14.323 29.71c-0.364-0.308-0.55-0.709-0.547-1.262l-1.071-0.005c-0.004 0.842 0.301 1.556 0.927 2.085l0.692-0.818zM13.776 28.446c0-0.36 0.070-0.669 0.202-0.936l-0.962-0.471c-0.211 0.43-0.311 0.902-0.311 1.407h1.071zM13.977 27.51c0.243-0.495 0.673-0.88 1.351-1.137l-0.38-1.002c-0.884 0.336-1.549 0.886-1.933 1.666l0.961 0.473zM15.331 26.372c0.712-0.273 1.507-0.414 2.392-0.414v-1.071c-0.999 0-1.926 0.159-2.776 0.485l0.384 1zM17.723 25.958c0.901 0 1.751 0.1 2.549 0.298l0.258-1.040c-0.89-0.221-1.826-0.33-2.807-0.33v1.071zM19.867 25.695l-0.13 1.679 1.068 0.084 0.131-1.679-1.068-0.083zM20.37 26.889c-0.557-0.105-1.068-0.161-1.528-0.161v1.071c0.377 0 0.818 0.046 1.328 0.142l0.199-1.053zM25.596 27.744l-0.003 0.536 0.544 0.003-0.005-0.544-0.536 0.005zM25.366 27.049l-0.364 0.393 0.005 0.004 0.359-0.397zM24.032 27.102l0.371 0.386 0.004-0.004-0.375-0.383zM23.708 27.734l-0.529-0.087-0.101 0.619 0.627 0.003 0.003-0.536zM27.646 30.59l0.324 0.427 0.192-0.146 0.018-0.241-0.534-0.039zM26.49 31.019l-0.115-0.523-0.003 0 0.118 0.523zM22.473 30.873l-0.182 0.504 0.004 0.001 0.178-0.505zM21.558 30.386l-0.332 0.42 0.003 0.002 0.003 0.002 0.326-0.425zM20.946 29.617l-0.48 0.237 0.001 0.002 0.479-0.24zM21.573 26.369v0zM26.469 25.788l0.214-0.49-0.005-0.002-0.209 0.493zM27.699 26.918l-0.482 0.234 0.001 0.003 0.48-0.237zM27.908 27.855l0.534 0.038 0.001-0.019v-0.020h-0.536zM27.845 28.718l-0.002 0.536 0.501 0.002 0.036-0.499-0.534-0.039zM23.603 28.697l0.003-0.536-0.699-0.003 0.178 0.676 0.518-0.137zM24.21 29.445l-0.263 0.466 0.002 0.001 0.261-0.468zM27.463 29.262v-0.536h-0.107l-0.098 0.041 0.206 0.495zM27.745 29.262l0.534 0.039 0.043-0.575h-0.577v0.536zM26.132 27.739c-0.004-0.387-0.094-0.803-0.406-1.087l-0.72 0.794c-0.006-0.005 0.006 0.001 0.021 0.047 0.016 0.049 0.032 0.131 0.033 0.257l1.071-0.011zM25.73 26.657c-0.281-0.261-0.65-0.347-1.013-0.347v1.071c0.208 0 0.272 0.050 0.284 0.061l0.729-0.785zM24.717 26.309c-0.399 0-0.77 0.125-1.060 0.409l0.75 0.766c0.059-0.058 0.144-0.103 0.31-0.103v-1.072zM23.661 26.715c-0.251 0.242-0.425 0.563-0.481 0.923l-0.001 0.009 1.057 0.174c0.025-0.149 0.081-0.252 0.166-0.334l-0.742-0.773zM23.705 28.27l1.889 0.010 0.006-1.071-1.889-0.011-0.006 1.071zM27.323 30.163c-0.118 0.089-0.404 0.213-0.948 0.333l0.23 1.046c0.565-0.125 1.050-0.287 1.365-0.525l-0.647-0.854zM26.372 30.497c-0.449 0.109-0.965 0.173-1.496 0.175h-0.002v1.071c0.566 0 1.145-0.068 1.735-0.202l-0.236-1.045zM24.874 30.672c-0.505 0-0.921-0.024-1.252-0.068l-0.143 1.062c0.394 0.053 0.861 0.078 1.395 0.078v-1.071zM23.622 30.603c-0.364-0.050-0.692-0.133-1.004-0.247l0.034 0.011-0.357 1.010c0.389 0.138 0.784 0.233 1.184 0.288l0.143-1.062zM22.656 30.369c-0.314-0.113-0.568-0.251-0.772-0.408l-0.652 0.85c0.305 0.234 0.661 0.42 1.058 0.565l0.365-1.007zM21.89 29.966c-0.194-0.158-0.351-0.354-0.461-0.578l-0.004-0.010-0.958 0.479c0.186 0.377 0.442 0.694 0.753 0.945l0.005 0.004 0.666-0.84zM21.426 29.38c-0.113-0.228-0.18-0.521-0.18-0.897h-1.071c0 0.502 0.090 0.965 0.29 1.372l0.96-0.475zM21.246 28.482c0-0.377 0.068-0.71 0.196-1.006l-0.983-0.426c-0.192 0.443-0.285 0.923-0.285 1.432h1.071zM21.442 27.477c0.135-0.311 0.3-0.542 0.487-0.707l-0.713-0.8c-0.322 0.287-0.572 0.653-0.757 1.082l0.983 0.426zM21.93 26.769c0.576-0.513 1.454-0.811 2.719-0.811v-1.071c-1.419 0-2.591 0.333-3.432 1.083l0.713 0.799zM24.649 25.958c0.568 0 1.104 0.108 1.611 0.323l0.418-0.986c-0.593-0.258-1.284-0.409-2.010-0.409-0.007 0-0.014 0-0.021 0h0.001v1.071zM26.255 26.279c0.474 0.207 0.78 0.5 0.961 0.873l0.963-0.468c-0.307-0.632-0.82-1.092-1.497-1.387l-0.428 0.982zM27.218 27.156c0.1 0.202 0.154 0.432 0.154 0.699h1.071c0-0.417-0.086-0.811-0.265-1.174l-0.96 0.474zM27.374 27.815l-0.063 0.863 1.068 0.078 0.063-0.863-1.068-0.077zM27.848 28.182l-4.242-0.021-0.005 1.071 4.242 0.021 0.005-1.071zM23.085 28.833c0.126 0.475 0.432 0.834 0.862 1.078l0.527-0.933c-0.212-0.12-0.31-0.258-0.352-0.418l-1.036 0.274zM23.948 29.912c0.434 0.243 0.978 0.34 1.585 0.34v-1.071c-0.509 0-0.848-0.084-1.062-0.204l-0.523 0.935zM25.533 30.252c0.651 0 1.367-0.176 2.136-0.496l-0.412-0.989c-0.688 0.287-1.26 0.414-1.724 0.414v1.071zM27.463 29.797h0.283v-1.071h-0.282v1.071zM27.212 29.221l-0.1 1.329 1.068 0.080 0.099-1.329-1.068-0.080z"></path>
</symbol>
<symbol id="icon-ice-crema" viewBox="0 0 31 32">
<path fill="#f8d24e" style="fill: var(--color1, #f8d24e)" d="M15.686 0c8.663 0 15.686 7.023 15.686 15.686v0.008c0 8.663-7.023 15.686-15.686 15.686s-15.686-7.023-15.686-15.686v-0.008c0-8.663 7.023-15.686 15.686-15.686z"></path>
<path fill="#000" style="fill: var(--color2, #000)" d="M15.763 4.468c0.057 0.151 0.17 0.884 0.17 1.111 0 0.562-0.208 1.087-0.591 1.498-0.317 0.34-0.633 0.529-1.394 0.836-0.846 0.345-1.196 0.553-1.592 0.945-0.402 0.402-0.638 0.841-0.723 1.356-0.095 0.562 0 0.959 0.288 1.186l0.146 0.113-0.232 0.146c-0.468 0.307-1.318 1.030-1.465 1.252-0.284 0.425-0.255 0.822 0.066 0.983l0.151 0.076-0.17 0.161c-0.255 0.241-0.307 0.406-0.269 0.841 0.024 0.288 0.014 0.444-0.052 0.68-0.080 0.307-0.080 0.312 0.024 0.529 0.104 0.213 0.397 0.482 0.662 0.595 0.128 0.057 0.132 0.076 0.161 0.51 0.014 0.25 0.038 1.049 0.057 1.777 0.014 0.728 0.047 1.394 0.076 1.474 0.024 0.085 0.113 0.198 0.194 0.255 0.274 0.189 0.463 0.392 0.586 0.629 0.137 0.269 0.288 0.931 0.747 3.218l0.321 1.607 0.199 0.189c0.378 0.373 1.101 0.543 2.292 0.543 1.196 0 1.909-0.165 2.287-0.539l0.203-0.194 0.293-1.488c0.647-3.256 0.704-3.436 1.21-3.837 0.156-0.128 0.307-0.284 0.335-0.354 0.033-0.080 0.066-0.699 0.090-1.635 0.019-0.832 0.047-1.654 0.066-1.829l0.028-0.317 0.307-0.232c0.387-0.298 0.539-0.567 0.539-0.983-0.005-0.491-0.326-1.030-0.912-1.512l-0.279-0.227 0.137-0.194c0.572-0.789 0.213-1.881-0.851-2.608l-0.321-0.222 0.118-0.123c0.524-0.562 0.61-2.24 0.17-3.407-0.265-0.695-0.87-1.451-1.611-2.008-0.364-0.274-1.366-0.879-1.456-0.879-0.019 0-0.019 0.033-0.005 0.076zM17.124 6.117c0.25 0.246 0.553 0.581 0.671 0.751 0.704 0.983 0.884 2.216 0.458 3.124-0.17 0.369-0.68 0.917-1.153 1.243-0.723 0.501-2.349 1.342-3.483 1.805-1.824 0.742-2.883 0.884-3.005 0.397-0.047-0.184 0.090-0.331 0.671-0.718 0.525-0.359 2.878-2.108 2.92-2.178 0.014-0.019-0.227 0.090-0.529 0.241-1.025 0.52-1.512 0.421-1.489-0.302 0.014-0.525 0.392-1.12 0.917-1.46 0.132-0.085 0.543-0.274 0.921-0.425 1.243-0.501 1.621-0.756 2.041-1.385 0.25-0.373 0.525-1.063 0.543-1.356 0.005-0.104 0.024-0.184 0.038-0.184s0.227 0.203 0.477 0.449zM18.414 11.485c0.345 0.194 0.704 0.525 0.86 0.784 0.274 0.468 0.132 0.936-0.458 1.531-0.643 0.652-1.739 1.276-2.944 1.673-1.111 0.364-2.174 0.534-3.695 0.586l-0.945 0.033 0.614 0.038c0.794 0.052 2.33 0.005 2.925-0.090 1.583-0.25 2.93-0.751 3.894-1.441 0.217-0.156 0.444-0.284 0.506-0.284 0.156 0 0.836 0.652 0.974 0.926 0.076 0.156 0.095 0.269 0.080 0.421-0.071 0.629-0.836 0.964-2.684 1.186-2.259 0.269-5.212 0.005-6.474-0.576-0.595-0.274-0.695-0.43-0.543-0.846 0.047-0.132 0.057-0.288 0.038-0.51-0.024-0.293-0.019-0.331 0.085-0.439 0.236-0.255 0.633-0.402 2.089-0.77 0.51-0.132 1.205-0.34 1.536-0.463 0.803-0.293 2.311-1.054 3.010-1.522 0.657-0.435 0.751-0.454 1.134-0.236zM12.138 17.269c0.992 0.288 1.871 0.373 3.506 0.34 1.229-0.024 1.985-0.099 3.076-0.293 0.222-0.038 0.416-0.071 0.44-0.071 0.052 0 0.038 1.815-0.019 2.292-0.061 0.506-0.198 0.898-0.345 0.992-0.151 0.099-0.907 0.203-1.919 0.26-2.075 0.113-4.206 0-4.867-0.265-0.359-0.146-0.397-0.335-0.402-2.089 0-1.167 0.009-1.328 0.071-1.304 0.038 0.014 0.246 0.076 0.458 0.137zM13.258 21.286c0.34 0.043 0.709 0.085 0.822 0.099l0.203 0.024-0.18 0.198c-0.232 0.25-0.586 0.751-0.714 1.007-0.146 0.293-0.194 0.312-0.411 0.194l-0.184-0.104-0.104-0.643c-0.057-0.35-0.118-0.685-0.132-0.742-0.043-0.123-0.085-0.123 0.699-0.033zM18.296 21.234c0 0.009-0.024 0.132-0.047 0.269-0.028 0.142-0.146 0.912-0.265 1.715-0.241 1.678-0.402 2.467-0.548 2.731-0.203 0.354-0.69 0.562-1.479 0.628-0.307 0.024-1.233-0.038-1.285-0.085-0.038-0.043 0.775-1.049 0.903-1.115 0.118-0.066 0.151-0.057 0.553 0.151 0.468 0.246 0.704 0.283 0.704 0.128s-0.123-0.307-0.425-0.515c-0.279-0.198-0.378-0.312-0.378-0.444 0-0.038 0.137-0.25 0.302-0.473s0.406-0.576 0.529-0.789l0.232-0.383 0.213 0.028c0.43 0.061 0.543 0.057 0.529-0.038-0.009-0.047-0.090-0.184-0.18-0.298-0.090-0.118-0.161-0.236-0.161-0.26 0-0.090 0.439-0.917 0.581-1.092 0.123-0.151 0.222-0.227 0.222-0.161zM15.342 21.612c0.236 0.156 1.125 0.926 1.181 1.021 0.024 0.043-0.888 1.47-1.068 1.673-0.019 0.024-0.118-0.024-0.217-0.099-0.099-0.080-0.468-0.335-0.822-0.567l-0.638-0.421 0.383-0.647c0.68-1.139 0.666-1.12 0.813-1.12 0.076 0 0.241 0.071 0.369 0.161zM17.133 21.782c-0.165 0.203-0.302 0.331-0.359 0.331-0.123 0-0.321-0.109-0.657-0.354l-0.279-0.203 0.558-0.033c0.302-0.014 0.595-0.033 0.647-0.043 0.378-0.061 0.378-0.057 0.090 0.302zM13.561 24.055c0.435 0.17 1.172 0.572 1.385 0.751 0.151 0.123 0.151 0.132 0.090 0.283-0.038 0.085-0.165 0.312-0.293 0.506-0.123 0.189-0.265 0.425-0.317 0.525-0.151 0.293-0.198 0.317-0.51 0.232-0.335-0.099-0.515-0.269-0.61-0.576-0.128-0.43-0.331-1.645-0.307-1.834 0.009-0.071 0.208-0.028 0.562 0.113z"></path>
</symbol>
<symbol id="icon-weight" viewBox="0 0 32 32">
<path fill="#f8d24e" style="fill: var(--color1, #f8d24e)" d="M16 0c8.837 0 16 7.163 16 16s-7.163 16-16 16c-8.837 0-16-7.163-16-16s7.163-16 16-16z"></path>
<path fill="#000" style="fill: var(--color2, #000)" d="M14.688 4.874c-2.861 0.424-5.218 2.013-6.085 4.093-0.277 0.657-0.351 1.061-0.351 1.853 0.005 0.585 0.027 0.802 0.117 1.118 0.186 0.621 0.319 0.937 0.596 1.382l0.255 0.414-0.287 0.352c-2.271 2.826-2.521 6.8-0.628 9.931 0.707 1.175 1.862 2.329 2.989 3.001l0.335 0.197 9.175-0.078 0.218-0.119c0.761-0.43 1.835-1.387 2.436-2.163 0.904-1.18 1.495-2.556 1.745-4.047 0.085-0.533 0.085-2.111-0.005-2.613-0.271-1.547-0.851-2.872-1.766-4.047-0.176-0.223-0.314-0.409-0.314-0.424 0-0.010 0.096-0.171 0.207-0.352 0.261-0.414 0.495-0.947 0.622-1.413 0.144-0.518 0.144-1.811 0-2.329-0.511-1.837-2.042-3.369-4.207-4.212-0.606-0.238-1.644-0.492-2.314-0.574-0.622-0.072-2.159-0.057-2.739 0.031zM17.927 5.717c2.84 0.554 4.92 2.293 5.303 4.435 0.085 0.481 0.032 1.299-0.112 1.754-0.144 0.445-0.41 0.968-0.723 1.413-0.128 0.181-0.234 0.388-0.234 0.455s0.112 0.243 0.271 0.419c1.33 1.475 2.032 3.322 2.032 5.32-0.005 2.272-0.878 4.264-2.558 5.827-0.287 0.269-0.697 0.605-0.915 0.75l-0.399 0.269-8.792 0.036-0.34-0.217c-1.234-0.802-2.346-2.127-2.963-3.534-0.777-1.78-0.856-3.845-0.223-5.698 0.335-0.963 0.782-1.749 1.463-2.577 0.277-0.331 0.404-0.528 0.404-0.621 0-0.078-0.138-0.331-0.319-0.595-0.638-0.926-0.899-1.956-0.745-2.929 0.16-0.983 0.606-1.791 1.431-2.593 1.074-1.040 2.574-1.728 4.335-1.987 0.729-0.109 2.34-0.067 3.085 0.072z"></path>
<path fill="#000" style="fill: var(--color2, #000)" d="M14.927 6.628c-2.181 0.357-3.888 1.568-4.446 3.157-0.128 0.357-0.149 0.497-0.149 1.009s0.021 0.652 0.149 1.009c0.080 0.228 0.229 0.543 0.33 0.704 0.277 0.445 0.399 0.461 0.947 0.129 0.819-0.502 1.761-0.869 2.739-1.071 0.66-0.135 1.925-0.186 2.643-0.104 1.122 0.129 2.34 0.533 3.314 1.107 0.277 0.16 0.558 0.295 0.628 0.295 0.404 0 0.92-1.164 0.92-2.070 0-2.013-1.925-3.736-4.654-4.166-0.58-0.093-1.861-0.093-2.42 0zM17.559 7.456c0.915 0.197 1.755 0.569 2.388 1.061 0.851 0.657 1.308 1.573 1.234 2.458-0.027 0.352-0.16 0.828-0.239 0.88-0.021 0.010-0.319-0.114-0.66-0.279-0.707-0.342-1.511-0.616-2.324-0.792-0.495-0.104-0.702-0.119-1.808-0.114-1.090 0-1.319 0.016-1.792 0.114-0.819 0.176-1.457 0.393-2.244 0.766-0.793 0.378-0.75 0.383-0.894-0.083-0.186-0.605-0.069-1.408 0.293-2.013 0.191-0.321 0.718-0.854 1.101-1.118 0.729-0.502 1.367-0.73 2.739-0.978 0.282-0.052 1.846 0.021 2.207 0.098z"></path>
<path fill="#000" style="fill: var(--color2, #000)" d="M16.693 14.132c-0.149 0.186-0.149 0.362 0.005 0.512 0.101 0.098 0.202 0.124 0.569 0.15 0.713 0.052 1.394 0.259 2.005 0.611 0.436 0.259 1.101 0.885 1.399 1.335 0.441 0.647 0.745 1.573 0.745 2.256 0 0.238 0.021 0.31 0.133 0.414 0.17 0.171 0.394 0.171 0.558 0 0.117-0.119 0.122-0.15 0.090-0.657-0.149-2.505-2.292-4.595-4.856-4.735l-0.532-0.031-0.117 0.145z"></path>
</symbol>
<symbol id="icon-cow" viewBox="0 0 31 32">
<path fill="#f8d24e" style="fill: var(--color1, #f8d24e)" d="M15.686 0.144c8.663 0 15.686 7.023 15.686 15.686v0.008c0 8.663-7.023 15.686-15.686 15.686s-15.686-7.023-15.686-15.686v-0.008c0-8.663 7.023-15.686 15.686-15.686z"></path>
<path fill="#131313" style="fill: var(--color3, #131313)" d="M8.746 4.528c-0.184 0.159-0.71 1.257-0.899 1.857-0.225 0.743-0.302 1.3-0.271 2.069 0.041 1.098 0.317 1.931 0.925 2.801 0.158 0.228 0.286 0.424 0.286 0.44 0 0.011-0.097 0.021-0.22 0.021-0.526 0-1.513 0.175-2.269 0.403-1.201 0.361-1.906 0.992-1.906 1.697 0 0.249 0.225 0.674 0.465 0.891 0.465 0.419 1.482 0.817 2.576 1.008 0.378 0.069 1.502 0.186 1.753 0.191 0.046 0 0.061 0.244 0.061 1.045 0 0.69 0.026 1.225 0.077 1.554 0.184 1.178 0.756 2.424 1.513 3.305l0.261 0.302-0.174 0.281c-0.255 0.398-0.353 0.7-0.383 1.151-0.077 1.082 0.598 2.042 1.901 2.716 2.484 1.289 6.342 0.785 7.788-1.018 0.705-0.881 0.787-1.888 0.23-2.801l-0.174-0.281 0.312-0.377c0.583-0.7 0.961-1.4 1.247-2.286 0.24-0.753 0.332-1.48 0.332-2.631 0-0.525 0.015-0.96 0.041-0.96 0.235-0.005 1.364-0.127 1.722-0.191 1.099-0.191 2.095-0.583 2.576-1.008 0.24-0.217 0.465-0.642 0.465-0.891 0-0.785-0.797-1.422-2.279-1.804-0.485-0.127-1.4-0.281-1.845-0.308l-0.21-0.016 0.23-0.318c0.286-0.387 0.644-1.14 0.782-1.634 0.388-1.427 0.148-3.087-0.685-4.673-0.348-0.658-0.588-0.812-0.869-0.552-0.107 0.101-0.153 0.239-0.256 0.737-0.317 1.586-0.905 2.843-1.763 3.771l-0.378 0.414h-8.085l-0.337-0.366c-0.838-0.923-1.446-2.228-1.763-3.819-0.102-0.499-0.148-0.637-0.256-0.737-0.169-0.154-0.332-0.149-0.521 0.016zM9.4 7.673c0.271 0.594 0.608 1.151 1.007 1.666l0.317 0.408-0.332 0.249c-0.312 0.239-0.603 0.578-0.828 0.965l-0.097 0.175-0.245-0.334c-0.838-1.156-1.048-2.573-0.603-4.042 0.215-0.711 0.21-0.706 0.404-0.090 0.092 0.297 0.266 0.748 0.378 1.003zM22.703 6.554c0.209 0.631 0.291 1.135 0.291 1.788 0 0.965-0.256 1.782-0.792 2.514l-0.24 0.329-0.179-0.302c-0.209-0.371-0.567-0.759-0.894-0.981-0.138-0.090-0.245-0.18-0.245-0.191 0-0.016 0.097-0.138 0.22-0.271 0.567-0.631 1.175-1.766 1.477-2.742 0.092-0.302 0.184-0.552 0.199-0.552s0.092 0.186 0.163 0.408zM20.091 10.432c0.567 0.239 1.109 0.923 1.196 1.501 0.046 0.318 0.153 0.52 0.291 0.552 0.061 0.011 0.485 0.048 0.94 0.080 1.615 0.106 2.887 0.451 3.429 0.923 0.25 0.223 0.225 0.408-0.077 0.637-0.603 0.456-1.906 0.801-3.235 0.859-0.879 0.037-1.063 0.064-1.18 0.186-0.087 0.090-0.097 0.186-0.097 1.146 0 1.3-0.066 2.048-0.23 2.652-0.23 0.822-0.685 1.697-1.216 2.318l-0.22 0.255-0.455-0.271c-0.552-0.329-1.068-0.541-1.686-0.684-1.937-0.462-4.078-0.18-5.519 0.727l-0.332 0.212-0.21-0.249c-0.286-0.334-0.736-1.050-0.915-1.453-0.393-0.912-0.511-1.655-0.511-3.289 0-1.586 0.082-1.469-1.094-1.533-1.502-0.080-2.647-0.35-3.368-0.806-0.532-0.339-0.445-0.642 0.296-0.997 0.71-0.345 1.686-0.552 3.041-0.637 1.053-0.069 1.078-0.085 1.175-0.594 0.143-0.769 0.71-1.406 1.426-1.607 0.179-0.053 1.181-0.064 4.247-0.058l4.012 0.011 0.291 0.122zM17.219 21.412c1.252 0.308 2.187 0.881 2.591 1.591 0.097 0.164 0.138 0.334 0.158 0.594 0.020 0.324 0.005 0.403-0.118 0.668-0.567 1.204-2.652 2-4.773 1.819-2.55-0.212-4.226-1.634-3.567-3.029 0.358-0.753 1.569-1.475 2.847-1.687 0.21-0.032 0.419-0.069 0.46-0.080s0.501-0.011 1.022 0c0.71 0.016 1.053 0.048 1.38 0.122z"></path>
<path fill="#131313" style="fill: var(--color3, #131313)" d="M12.15 13.089c-0.317 0.106-0.531 0.244-0.818 0.53-0.25 0.239-0.271 0.52-0.061 0.69 0.194 0.159 0.378 0.138 0.613-0.069 0.296-0.26 0.526-0.366 0.813-0.366 0.286-0.005 0.506 0.095 0.813 0.366 0.235 0.207 0.419 0.228 0.613 0.069 0.102-0.085 0.133-0.154 0.133-0.313 0-0.164-0.036-0.239-0.215-0.419-0.506-0.509-1.257-0.706-1.891-0.488z"></path>
<path fill="#131313" style="fill: var(--color3, #131313)" d="M18.109 13.084c-0.327 0.122-0.746 0.398-0.915 0.605-0.163 0.202-0.169 0.43 0 0.599 0.169 0.18 0.373 0.17 0.618-0.032 0.603-0.499 1.053-0.515 1.61-0.053 0.143 0.122 0.307 0.217 0.358 0.217 0.25 0 0.455-0.223 0.455-0.488 0-0.17-0.424-0.562-0.807-0.748-0.424-0.207-0.93-0.244-1.318-0.101z"></path>
<path fill="#131313" style="fill: var(--color3, #131313)" d="M12.891 22.903c-0.148 0.143-0.199 0.35-0.123 0.515 0.056 0.133 0.143 0.186 0.496 0.281 0.158 0.042 0.225 0.095 0.281 0.228 0.072 0.175 0.077 0.175 0.47 0.191l0.393 0.016v-0.149c-0.005-0.212-0.123-0.52-0.276-0.732-0.179-0.244-0.491-0.403-0.843-0.435-0.24-0.021-0.302-0.011-0.399 0.085z"></path>
<path fill="#131313" style="fill: var(--color3, #131313)" d="M17.771 22.866c-0.256 0.069-0.623 0.414-0.726 0.684-0.046 0.122-0.092 0.339-0.097 0.483-0.010 0.228 0.010 0.281 0.133 0.393 0.302 0.265 0.7 0.058 0.7-0.366 0-0.207 0.153-0.35 0.424-0.403 0.286-0.053 0.388-0.17 0.393-0.44 0-0.355-0.317-0.493-0.828-0.35z"></path>
</symbol>
<symbol id="icon-facebook" viewBox="0 0 32 32">
<path fill="#f8d24e" style="fill: var(--color1, #f8d24e)" d="M16 32c8.837 0 16-7.163 16-16s-7.163-16-16-16-16 7.163-16 16 7.163 16 16 16z"></path>
<path fill="#84a178" style="fill: var(--color2, #84a178)" d="M20.446 15.981h-2.611v9.619h-3.955v-9.619h-1.88v-3.379h1.88v-2.187c0-1.564 0.739-4.014 3.991-4.014l2.929 0.012v3.281h-2.125c-0.348 0-0.839 0.176-0.839 0.922v1.989h2.955l-0.345 3.377z"></path>
</symbol>
<symbol id="icon-github" viewBox="0 0 32 32">
<path fill="#f8d24e" style="fill: var(--color1, #f8d24e)" d="M32 16c0 8.837-7.163 16-16 16s-16-7.163-16-16c0-8.837 7.163-16 16-16s16 7.163 16 16z"></path>
<path fill="#84a178" style="fill: var(--color2, #84a178)" d="M16 6.588c-5.17 0-9.412 4.242-9.412 9.412 0 4.411 3.096 8.419 7.206 9.412v-3.113c-0.408 0.088-0.781 0.091-1.196-0.031-0.556-0.164-1.008-0.535-1.344-1.099-0.214-0.36-0.593-0.753-0.988-0.724l-0.097-1.098c0.856-0.073 1.594 0.521 2.033 1.258 0.196 0.328 0.421 0.52 0.709 0.605 0.278 0.083 0.577 0.043 0.925-0.080 0.088-0.697 0.408-0.958 0.649-1.327-2.452-0.365-3.429-1.666-3.816-2.692-0.514-1.364-0.238-3.066 0.67-4.143 0.018-0.021 0.050-0.075 0.038-0.113-0.417-1.259 0.090-2.3 0.109-2.41 0.481 0.141 0.559-0.143 2.089 0.786l0.264 0.159c0.111 0.066 0.075 0.028 0.186 0.019 0.59-0.166 1.269-0.266 1.97-0.276l0.006-0c0.668 0.008 1.336 0.104 2.002 0.284l0.086 0.009c-0.008-0.002 0.024-0.006 0.075-0.037 1.911-1.158 1.842-0.779 2.355-0.946 0.019 0.111 0.519 1.169 0.106 2.411-0.056 0.171 1.656 1.739 0.708 4.256-0.388 1.026-1.365 2.328-3.816 2.693 0.314 0.48 0.692 0.734 0.69 1.722v3.886c4.109-0.993 7.206-5 7.206-9.412 0-5.17-4.242-9.412-9.412-9.412z"></path>
</symbol>
<symbol id="icon-telegram" viewBox="0 0 32 32">
<path fill="#f8d24e" style="fill: var(--color1, #f8d24e)" d="M32 16c0 8.837-7.163 16-16 16s-16-7.163-16-16c0-8.837 7.163-16 16-16s16 7.163 16 16z"></path>
<path fill="#84a178" style="fill: var(--color2, #84a178)" d="M12.867 18.376l-0.317 4.169c0.455 0 0.651-0.183 0.888-0.401l2.13-1.901 4.414 3.018c0.809 0.421 1.381 0.199 1.599-0.696l2.898-12.673c0.257-1.117-0.433-1.554-1.221-1.28l-17.033 6.086c-1.163 0.422-1.145 1.026-0.198 1.301l4.354 1.264 10.115-5.907c0.476-0.295 0.909-0.132 0.552 0.163l-8.182 6.856z"></path>
</symbol>
<symbol id="icon-vector" viewBox="0 0 22 32">
<path d="M3.2 3.2l15.835 12.8-15.835 12.8"></path>
</symbol>
<symbol id="icon-btn-close" viewBox="0 0 32 32">
<path d="M18.006 16l11.79-11.79c0.233-0.272 0.355-0.622 0.341-0.98s-0.162-0.697-0.416-0.951c-0.253-0.253-0.593-0.402-0.951-0.415s-0.708 0.108-0.98 0.341l-11.79 11.79-11.79-11.804c-0.268-0.268-0.631-0.418-1.010-0.418s-0.742 0.15-1.010 0.418-0.418 0.631-0.418 1.010c0 0.379 0.15 0.742 0.418 1.010l11.804 11.79-11.804 11.79c-0.149 0.128-0.27 0.284-0.355 0.461s-0.133 0.369-0.141 0.564c-0.008 0.196 0.025 0.391 0.097 0.574s0.18 0.348 0.319 0.487c0.139 0.139 0.304 0.247 0.487 0.319s0.378 0.105 0.574 0.097c0.196-0.008 0.388-0.056 0.565-0.141s0.333-0.206 0.461-0.355l11.804-11.79 11.79 11.79c0.272 0.233 0.622 0.355 0.98 0.341s0.697-0.162 0.951-0.416 0.402-0.593 0.416-0.951c0.014-0.358-0.108-0.708-0.341-0.98l-11.79-11.79z"></path>
</symbol>
<symbol id="icon-Gantelka" viewBox="0 0 32 32">
<path fill="#f8d24e" style="fill: var(--color1, #f8d24e)" d="M16 0c8.837 0 16 7.163 16 16s-7.163 16-16 16c-8.837 0-16-7.163-16-16s7.163-16 16-16z"></path>
<path fill="#131313" style="fill: var(--color2, #131313)" d="M14.688 4.874c-2.861 0.424-5.218 2.013-6.085 4.093-0.276 0.657-0.351 1.061-0.351 1.853 0.005 0.585 0.026 0.802 0.117 1.118 0.186 0.621 0.319 0.936 0.595 1.381l0.256 0.414-0.288 0.352c-2.271 2.826-2.521 6.8-0.627 9.931 0.707 1.175 1.862 2.329 2.989 3.002l0.335 0.196 9.175-0.077 0.218-0.119c0.761-0.429 1.835-1.387 2.436-2.163 0.87-1.13 1.486-2.5 1.737-3.993l0.007-0.053c0.085-0.533 0.085-2.112-0.005-2.614-0.271-1.547-0.851-2.872-1.766-4.047-0.175-0.223-0.314-0.409-0.314-0.424 0-0.010 0.096-0.171 0.207-0.352 0.26-0.414 0.495-0.947 0.622-1.412 0.143-0.518 0.143-1.811 0-2.329-0.511-1.837-2.042-3.369-4.207-4.212-0.607-0.238-1.644-0.492-2.314-0.574-0.622-0.072-2.159-0.058-2.739 0.031zM17.926 5.717c2.84 0.554 4.92 2.292 5.303 4.435 0.085 0.481 0.032 1.299-0.111 1.754-0.144 0.445-0.41 0.968-0.723 1.412-0.128 0.181-0.234 0.388-0.234 0.456s0.111 0.243 0.271 0.419c1.329 1.475 2.031 3.322 2.031 5.32-0.005 2.272-0.877 4.264-2.558 5.827-0.287 0.269-0.697 0.605-0.915 0.75l-0.399 0.269-8.792 0.036-0.34-0.218c-1.234-0.801-2.346-2.126-2.963-3.534-0.776-1.78-0.856-3.845-0.223-5.697 0.335-0.963 0.782-1.749 1.462-2.577 0.277-0.332 0.404-0.528 0.404-0.621 0-0.078-0.138-0.332-0.319-0.595-0.638-0.927-0.899-1.956-0.744-2.929 0.16-0.983 0.606-1.791 1.431-2.593 1.074-1.040 2.574-1.728 4.335-1.987 0.728-0.109 2.34-0.067 3.085 0.072z"></path>
<path fill="#131313" style="fill: var(--color2, #131313)" d="M14.927 6.628c-2.18 0.357-3.888 1.568-4.446 3.157-0.128 0.357-0.149 0.497-0.149 1.009s0.021 0.652 0.149 1.009c0.079 0.228 0.228 0.544 0.33 0.704 0.276 0.445 0.399 0.461 0.947 0.129 0.788-0.485 1.705-0.857 2.683-1.062l0.056-0.010c0.659-0.134 1.925-0.186 2.643-0.103 1.122 0.129 2.34 0.532 3.313 1.107 0.276 0.16 0.559 0.294 0.627 0.294 0.404 0 0.92-1.164 0.92-2.069 0-2.013-1.925-3.736-4.653-4.166-0.58-0.093-1.862-0.093-2.42 0zM17.56 7.456c0.915 0.196 1.755 0.57 2.388 1.061 0.851 0.657 1.308 1.573 1.233 2.458-0.026 0.352-0.159 0.828-0.239 0.88-0.022 0.010-0.32-0.114-0.66-0.279-0.667-0.327-1.443-0.6-2.254-0.779l-0.070-0.013c-0.495-0.103-0.702-0.119-1.808-0.114-1.091 0-1.319 0.016-1.792 0.114-0.819 0.176-1.458 0.394-2.245 0.766-0.792 0.378-0.75 0.383-0.893-0.083-0.186-0.605-0.069-1.407 0.292-2.013 0.192-0.321 0.718-0.854 1.101-1.117 0.729-0.502 1.367-0.73 2.739-0.979 0.282-0.051 1.846 0.021 2.207 0.099zM16.693 14.131c-0.149 0.187-0.149 0.363 0.005 0.513 0.101 0.099 0.202 0.124 0.57 0.15 0.745 0.054 1.428 0.274 2.027 0.623l-0.022-0.012c0.436 0.259 1.101 0.885 1.399 1.335 0.442 0.646 0.744 1.573 0.744 2.257 0 0.238 0.022 0.31 0.133 0.413 0.17 0.171 0.394 0.171 0.559 0 0.117-0.119 0.122-0.15 0.090-0.657-0.149-2.505-2.292-4.595-4.856-4.736l-0.532-0.031-0.116 0.145z"></path>
</symbol>
<symbol id="icon-ice-crema" viewBox="0 0 32 32">
<path fill="#f8d24e" style="fill: var(--color1, #f8d24e)" d="M16 0c8.837 0 16 7.163 16 16s-7.163 16-16 16c-8.837 0-16-7.163-16-16s7.163-16 16-16z"></path>
<path fill="#000" style="fill: var(--color3, #000)" d="M16.078 4.557c0.058 0.155 0.173 0.902 0.173 1.133 0 0.002 0 0.005 0 0.008 0 0.589-0.229 1.124-0.603 1.522l0.001-0.001c-0.323 0.347-0.646 0.54-1.422 0.853-0.863 0.352-1.22 0.564-1.624 0.964-0.41 0.41-0.651 0.858-0.737 1.384-0.097 0.573 0 0.979 0.294 1.21l0.149 0.115-0.236 0.15c-0.477 0.314-1.344 1.051-1.494 1.277-0.289 0.434-0.26 0.838 0.067 1.003l0.154 0.077-0.173 0.164c-0.26 0.246-0.314 0.415-0.275 0.858 0.024 0.294 0.015 0.454-0.052 0.694-0.082 0.314-0.082 0.318 0.024 0.54 0.106 0.217 0.405 0.492 0.675 0.607 0.13 0.058 0.134 0.077 0.164 0.52 0.014 0.256 0.038 1.070 0.058 1.812 0.015 0.742 0.049 1.422 0.077 1.504 0.024 0.086 0.116 0.202 0.198 0.26 0.279 0.193 0.472 0.401 0.597 0.641 0.14 0.275 0.294 0.95 0.762 3.283l0.328 1.638 0.202 0.193c0.385 0.381 1.123 0.554 2.338 0.554 1.219 0 1.947-0.169 2.333-0.55l0.207-0.197 0.298-1.519c0.66-3.321 0.718-3.504 1.234-3.914 0.159-0.131 0.314-0.289 0.342-0.362 0.034-0.082 0.068-0.714 0.092-1.668 0.019-0.848 0.049-1.687 0.068-1.866l0.029-0.323 0.314-0.237c0.395-0.303 0.549-0.578 0.549-1.002-0.004-0.501-0.333-1.051-0.93-1.542l-0.285-0.231 0.14-0.198c0.583-0.804 0.217-1.918-0.868-2.66l-0.328-0.227 0.12-0.125c0.535-0.573 0.622-2.285 0.173-3.475-0.269-0.708-0.887-1.48-1.644-2.049-0.37-0.28-1.393-0.897-1.484-0.897-0.019 0-0.019 0.034-0.004 0.077zM17.466 6.24c0.256 0.251 0.564 0.593 0.685 0.766 0.718 1.003 0.901 2.261 0.467 3.187-0.173 0.376-0.694 0.934-1.176 1.267-0.737 0.511-2.396 1.37-3.552 1.841-1.86 0.757-2.941 0.902-3.066 0.405-0.049-0.188 0.092-0.337 0.685-0.733 0.534-0.366 2.935-2.15 2.979-2.222 0.014-0.019-0.232 0.092-0.54 0.246-1.046 0.531-1.542 0.429-1.518-0.308 0.014-0.535 0.4-1.142 0.934-1.489 0.136-0.086 0.555-0.28 0.941-0.434 1.267-0.511 1.653-0.771 2.082-1.412 0.256-0.381 0.535-1.085 0.554-1.384 0.005-0.106 0.024-0.188 0.038-0.188s0.232 0.207 0.486 0.458zM18.781 11.716c0.352 0.197 0.718 0.535 0.877 0.8 0.28 0.477 0.136 0.954-0.467 1.562-0.655 0.666-1.773 1.302-3.003 1.706-1.133 0.371-2.217 0.545-3.77 0.598l-0.964 0.034 0.627 0.038c0.81 0.053 2.376 0.005 2.983-0.092 1.615-0.256 2.989-0.767 3.972-1.47 0.222-0.159 0.453-0.289 0.516-0.289 0.159 0 0.853 0.666 0.993 0.945 0.077 0.159 0.097 0.275 0.082 0.429-0.072 0.641-0.853 0.984-2.737 1.21-2.304 0.275-5.316 0.005-6.604-0.588-0.608-0.28-0.708-0.439-0.554-0.863 0.048-0.135 0.058-0.294 0.038-0.521-0.024-0.299-0.019-0.337 0.086-0.448 0.241-0.26 0.646-0.41 2.131-0.786 0.52-0.134 1.229-0.347 1.566-0.472 0.819-0.299 2.357-1.075 3.070-1.552 0.67-0.444 0.767-0.463 1.157-0.241zM12.38 17.615c1.012 0.294 1.909 0.381 3.577 0.347 1.253-0.024 2.024-0.101 3.137-0.299 0.227-0.038 0.424-0.072 0.449-0.072 0.053 0 0.038 1.851-0.019 2.338-0.063 0.516-0.203 0.916-0.352 1.012-0.154 0.101-0.925 0.207-1.957 0.265-2.116 0.115-4.29 0-4.964-0.27-0.366-0.149-0.405-0.342-0.41-2.131 0-1.19 0.010-1.354 0.072-1.33 0.038 0.014 0.25 0.077 0.467 0.14zM13.523 21.713c0.348 0.044 0.723 0.086 0.838 0.101l0.208 0.024-0.184 0.202c-0.236 0.255-0.598 0.766-0.728 1.027-0.149 0.299-0.198 0.318-0.419 0.198l-0.188-0.106-0.106-0.655c-0.056-0.364-0.103-0.621-0.156-0.876l0.020 0.119c-0.044-0.125-0.087-0.125 0.713-0.033zM18.661 21.66c0 0.010-0.024 0.134-0.049 0.275-0.029 0.144-0.149 0.93-0.269 1.749-0.246 1.711-0.41 2.516-0.559 2.786-0.207 0.362-0.704 0.573-1.508 0.641-0.314 0.024-1.258-0.038-1.311-0.087-0.038-0.043 0.79-1.070 0.921-1.137 0.12-0.068 0.154-0.058 0.563 0.154 0.477 0.252 0.719 0.29 0.719 0.131s-0.125-0.314-0.434-0.525c-0.284-0.203-0.385-0.319-0.385-0.454 0-0.038 0.14-0.255 0.308-0.482s0.414-0.588 0.54-0.805l0.237-0.39 0.216 0.029c0.438 0.063 0.554 0.058 0.54-0.038-0.010-0.049-0.092-0.188-0.184-0.304-0.092-0.12-0.164-0.241-0.164-0.265 0-0.092 0.448-0.935 0.593-1.114 0.125-0.154 0.227-0.232 0.227-0.164zM15.649 22.045c0.241 0.159 1.147 0.945 1.204 1.041 0.024 0.044-0.906 1.499-1.089 1.706-0.019 0.024-0.12-0.024-0.221-0.101-0.225-0.169-0.498-0.359-0.777-0.541l-0.061-0.037-0.651-0.429 0.39-0.66c0.694-1.162 0.68-1.142 0.829-1.142 0.077 0 0.246 0.072 0.376 0.164zM17.475 22.218c-0.169 0.207-0.308 0.338-0.366 0.338-0.125 0-0.328-0.111-0.67-0.362l-0.285-0.207 0.57-0.034c0.251-0.009 0.479-0.025 0.706-0.047l-0.046 0.004c0.386-0.062 0.386-0.058 0.092 0.309zM13.831 24.537c0.444 0.173 1.196 0.583 1.412 0.767 0.154 0.125 0.154 0.134 0.092 0.289-0.102 0.203-0.201 0.371-0.31 0.533l0.011-0.017c-0.092 0.138-0.199 0.313-0.3 0.491l-0.023 0.044c-0.154 0.299-0.202 0.323-0.52 0.237-0.342-0.102-0.525-0.275-0.621-0.589-0.131-0.438-0.338-1.677-0.314-1.87 0.010-0.072 0.212-0.029 0.573 0.116z"></path>
</symbol>
<symbol id="icon-Muuu" viewBox="0 0 32 32">
<path fill="#f8d24e" style="fill: var(--color1, #f8d24e)" d="M16 0c8.837 0 16 7.163 16 16s-7.163 16-16 16c-8.837 0-16-7.163-16-16s7.163-16 16-16z"></path>
<path fill="#131313" style="fill: var(--color2, #131313)" d="M8.922 4.618c-0.188 0.163-0.725 1.283-0.918 1.894-0.229 0.757-0.307 1.325-0.276 2.109 0.042 1.12 0.323 1.97 0.943 2.857 0.162 0.233 0.292 0.433 0.292 0.449 0 0.011-0.099 0.022-0.224 0.022-0.538 0-1.544 0.179-2.315 0.411-1.225 0.369-1.944 1.012-1.944 1.732 0 0.255 0.229 0.687 0.474 0.909 0.474 0.428 1.512 0.834 2.627 1.028 0.386 0.070 1.533 0.189 1.788 0.195 0.047 0 0.063 0.25 0.063 1.066 0 0.703 0.026 1.25 0.078 1.585 0.188 1.201 0.771 2.472 1.542 3.371l0.266 0.308-0.177 0.287c-0.26 0.406-0.36 0.714-0.39 1.174-0.079 1.104 0.609 2.083 1.939 2.771 2.532 1.315 6.468 0.801 7.944-1.039 0.719-0.899 0.803-1.926 0.234-2.857l-0.177-0.287 0.318-0.384c0.595-0.714 0.98-1.428 1.272-2.332 0.244-0.768 0.339-1.51 0.339-2.684 0-0.535 0.015-0.979 0.042-0.979 0.24-0.005 1.392-0.13 1.757-0.195 1.121-0.195 2.138-0.595 2.627-1.028 0.245-0.222 0.474-0.655 0.474-0.909 0-0.801-0.813-1.45-2.325-1.84-0.495-0.13-1.428-0.287-1.882-0.314l-0.214-0.017 0.235-0.324c0.292-0.395 0.657-1.163 0.797-1.667 0.396-1.455 0.151-3.149-0.699-4.767-0.354-0.671-0.599-0.828-0.886-0.563-0.109 0.104-0.156 0.244-0.26 0.753-0.323 1.618-0.923 2.9-1.798 3.846l-0.386 0.422h-8.246l-0.344-0.373c-0.854-0.941-1.475-2.272-1.798-3.896-0.104-0.509-0.151-0.649-0.26-0.752-0.172-0.157-0.339-0.152-0.531 0.016zM9.588 7.827c0.276 0.605 0.621 1.174 1.027 1.699l0.323 0.417-0.339 0.254c-0.318 0.243-0.615 0.59-0.845 0.986l-0.099 0.178-0.25-0.34c-0.855-1.18-1.069-2.624-0.615-4.124 0.219-0.724 0.214-0.719 0.412-0.092 0.094 0.303 0.271 0.763 0.386 1.023zM23.156 6.685c0.189 0.524 0.298 1.129 0.298 1.76 0 0.022-0 0.045-0 0.067l0-0.003c0 0.984-0.26 1.818-0.808 2.564l-0.245 0.335-0.182-0.308c-0.236-0.4-0.542-0.733-0.903-0.994l-0.010-0.007c-0.141-0.092-0.25-0.184-0.25-0.195 0-0.016 0.099-0.141 0.224-0.276 0.579-0.644 1.199-1.802 1.507-2.797 0.093-0.308 0.188-0.563 0.203-0.563s0.094 0.19 0.166 0.417zM20.493 10.641c0.579 0.243 1.131 0.941 1.22 1.531 0.047 0.325 0.156 0.531 0.297 0.563 0.063 0.010 0.495 0.049 0.959 0.081 1.647 0.109 2.945 0.46 3.498 0.941 0.255 0.227 0.229 0.417-0.078 0.65-0.615 0.465-1.944 0.817-3.3 0.877-0.897 0.038-1.084 0.064-1.204 0.189-0.089 0.092-0.099 0.189-0.099 1.169 0 1.326-0.068 2.089-0.235 2.705-0.234 0.838-0.698 1.732-1.24 2.365l-0.224 0.26-0.464-0.276c-0.495-0.307-1.069-0.547-1.681-0.69l-0.039-0.008c-1.976-0.471-4.16-0.184-5.629 0.741l-0.339 0.216-0.214-0.254c-0.292-0.341-0.751-1.071-0.933-1.482-0.401-0.931-0.521-1.688-0.521-3.355 0-1.618 0.083-1.499-1.116-1.564-1.533-0.081-2.701-0.357-3.436-0.822-0.542-0.346-0.453-0.655 0.303-1.018 0.724-0.352 1.72-0.563 3.101-0.649 1.074-0.070 1.1-0.086 1.199-0.606 0.146-0.785 0.724-1.434 1.455-1.64 0.182-0.054 1.204-0.065 4.332-0.060l4.092 0.011 0.297 0.125zM17.564 21.841c1.277 0.314 2.231 0.898 2.643 1.623 0.099 0.168 0.141 0.34 0.161 0.606 0.021 0.33 0.006 0.411-0.12 0.682-0.579 1.229-2.705 2.040-4.868 1.856-2.601-0.216-4.311-1.667-3.638-3.090 0.365-0.768 1.6-1.504 2.903-1.72 0.214-0.032 0.428-0.070 0.469-0.081s0.511-0.011 1.043 0c0.724 0.017 1.073 0.049 1.407 0.125z"></path>
<path fill="#131313" style="fill: var(--color2, #131313)" d="M12.393 13.351c-0.323 0.109-0.542 0.25-0.834 0.541-0.256 0.243-0.276 0.53-0.063 0.703 0.198 0.162 0.386 0.141 0.625-0.070 0.303-0.265 0.538-0.374 0.829-0.374 0.292-0.005 0.516 0.098 0.829 0.374 0.239 0.211 0.427 0.232 0.625 0.070 0.104-0.087 0.136-0.157 0.136-0.32 0-0.167-0.036-0.243-0.219-0.427-0.516-0.519-1.283-0.719-1.929-0.498zM18.47 13.345c-0.333 0.125-0.761 0.406-0.932 0.617-0.167 0.206-0.173 0.438 0 0.612 0.172 0.184 0.38 0.173 0.63-0.033 0.615-0.509 1.074-0.525 1.642-0.054 0.146 0.125 0.312 0.222 0.365 0.222 0.255 0 0.464-0.227 0.464-0.498 0-0.173-0.433-0.573-0.824-0.763-0.433-0.211-0.948-0.249-1.345-0.102zM13.149 23.361c-0.151 0.146-0.204 0.356-0.125 0.525 0.058 0.135 0.146 0.189 0.506 0.287 0.162 0.043 0.23 0.097 0.287 0.232 0.073 0.179 0.078 0.179 0.48 0.195l0.401 0.017v-0.152c-0.005-0.216-0.125-0.53-0.282-0.746-0.182-0.25-0.5-0.412-0.86-0.444-0.245-0.021-0.307-0.011-0.406 0.087zM18.127 23.323c-0.26 0.070-0.636 0.422-0.74 0.698-0.052 0.145-0.087 0.313-0.099 0.487l-0 0.006c-0.010 0.232 0.010 0.287 0.136 0.4 0.307 0.271 0.714 0.060 0.714-0.373 0-0.211 0.156-0.357 0.433-0.411 0.292-0.054 0.396-0.173 0.401-0.449 0-0.363-0.323-0.503-0.845-0.357z"></path>
</symbol>
<symbol id="icon-Arrow-1" viewBox="0 0 82 32">
<path d="M81.414 17.414c0.781-0.781 0.781-2.047 0-2.828l-12.728-12.728c-0.781-0.781-2.047-0.781-2.828 0s-0.781 2.047 0 2.828l11.314 11.314-11.314 11.314c-0.781 0.781-0.781 2.047 0 2.828s2.047 0.781 2.828 0l12.728-12.728zM0 18h80v-4h-80v4z"></path>
</symbol>
<symbol id="icon-Arrow-2" viewBox="0 0 102 32">
<path d="M101.414 17.414c0.781-0.781 0.781-2.047 0-2.828l-12.728-12.728c-0.781-0.781-2.047-0.781-2.828 0s-0.781 2.047 0 2.828l11.314 11.314-11.314 11.314c-0.781 0.781-0.781 2.047 0 2.828s2.047 0.781 2.828 0l12.728-12.728zM0 18h100v-4h-100v4z"></path>
</symbol>
<symbol id="icon-Arrow-3" viewBox="0 0 69 32">
<path d="M68.081 17.414c0.781-0.781 0.781-2.047 0-2.829l-12.728-12.728c-0.781-0.781-2.047-0.781-2.828 0s-0.781 2.047 0 2.828l11.314 11.314-11.314 11.314c-0.781 0.781-0.781 2.047 0 2.828s2.047 0.781 2.828 0l12.728-12.728zM0 18h66.667v-4h-66.667v4z"></path>
</symbol>
</defs>
</svg>


