<svg width="48" height="45" fill="none" xmlns="http://www.w3.org/2000/svg"><path d="M24.486 19.925c2.3-6.166-2.461-9.54-5.617-11.76-.603-.452-1.206-.876-1.695-1.263a5.893 5.893 0 0 1-1.854-2.769 5.832 5.832 0 0 1-.047-3.32.637.637 0 0 0-.187-.642.655.655 0 0 0-.664-.132c-1.062.415-2.05.997-2.926 1.723a6.893 6.893 0 0 0-1.992 2.405 6.809 6.809 0 0 0-.717 3.027A8.026 8.026 0 0 0 7.224 8.81a5.878 5.878 0 0 0-1.152 3.786 7.492 7.492 0 0 0-2.09 3.222 7.417 7.417 0 0 0-.209 3.82c-.384.23-.682.578-.847.99a2.005 2.005 0 0 0-.066 1.296c.122.427.382.803.741 1.07.36.267.797.41 1.246.407h.042v3.506c0 .356.143.697.398.949s.6.393.96.393h1.056l1.72 14.728c.035.328.192.631.44.851.25.22.571.342.905.342h7.156c.334-.001.656-.123.905-.343.249-.22.408-.522.446-.85l1.72-14.728h1.056c.36 0 .705-.141.96-.393.254-.252.397-.593.397-.949v-3.506h.043a2.07 2.07 0 0 0 1.454-.596c.386-.38.603-.898.603-1.437a1.987 1.987 0 0 0-.603-1.45l-.018.007ZM8.998 8.738c.87 3.226 4.224 4.496 7.283 5.63a.663.663 0 0 0 .958-.32.644.644 0 0 0-.23-.762.662.662 0 0 0-.264-.111c-3.294-1.235-6.401-2.385-6.637-5.683a5.46 5.46 0 0 1 .502-2.637 5.528 5.528 0 0 1 1.7-2.091 9.84 9.84 0 0 1 1.473-1.002 7.666 7.666 0 0 0 0 1.24c.07.945.331 1.866.769 2.71a7.081 7.081 0 0 0 1.777 2.198c.5.423 1.122.858 1.81 1.323 1.587 1.127 3.391 2.385 4.537 4.09a6.308 6.308 0 0 1 .658 6.052H20.667c-5.496.001-11.813-1.502-13.062-5.711a4.775 4.775 0 0 1 .005-2.649 4.822 4.822 0 0 1 1.418-2.247l-.03-.03Zm4.948 20.328 2.015 1.991-2.015 1.992-2.015-2.004 2.015-1.98Zm4.622 5.23-1.666 1.645-2.015-1.992 2.015-1.985 1.75 1.723-.084.608Zm-4.622 4.567L11.93 36.87l2.015-1.992 2.015 1.992-2.015 1.992Zm-.923-4.902-2.015 1.992-1.678-1.658-.072-.596 1.75-1.723 2.015 1.985Zm-2.945 2.91-.404.4-.102-.907.506.507Zm-.21 2.04 1.14-1.128 2.214 2.207c.011.044.025.088.042.13h-3.258l-.139-1.21Zm7.022-1.128 1.14 1.127-.138 1.193h-3.349l2.347-2.32Zm1.328-.512-.405-.4.513-.507-.108.907Zm.603-5.212-1.008-1.014 1.28-1.264-.272 2.278Zm-1.937-1.92-1.912-1.884h3.825l-1.913 1.884Zm-5.883 0L9.09 28.255h3.825l-1.912 1.884Zm6.517 12.737h-7.15a.048.048 0 0 1-.042-.042l-.17-1.431h7.579l-.163 1.431a.048.048 0 0 1-.048.042h-.006ZM23.05 22.1h-2.1a.667.667 0 0 0-.504.166.65.65 0 0 0-.16.744.65.65 0 0 0 .394.354c.087.029.18.039.27.03h.749v3.506a.048.048 0 0 1-.048.042H6.223a.048.048 0 0 1-.048-.042v-3.506h11.952a.66.66 0 0 0 .424-.21.646.646 0 0 0-.424-1.084H4.853a.754.754 0 0 1-.751-.438.732.732 0 0 1 .18-.844.751.751 0 0 1 .571-.19h1.37a.66.66 0 0 0 .424-.21.646.646 0 0 0 0-.875.66.66 0 0 0-.424-.21H5.016a6.32 6.32 0 0 1 .082-2.736 6.363 6.363 0 0 1 1.233-2.451c.423 1.3 1.509 3.077 4.224 4.49 2.552 1.317 5.931 1.991 10.04 1.991h2.413a.757.757 0 0 1 .572.19.74.74 0 0 1 .244.547.733.733 0 0 1-.244.546.749.749 0 0 1-.572.19h.043ZM27.868 39.256l-.483.74.01.007.473-.747Zm5.199.25.884-.02-.023-1.023-1.01.171.149.872Zm.06 2.72.225.856.675-.178-.016-.697-.884.02Zm-6.823.13.199-.862h-.005l-.194.862Zm-3.368-1.503.573-.674-.002-.001-.57.675ZM21.72 38.09l.884.004v-.004h-.884Zm.423-1.935-.794-.39v.001l.794.39Zm2.712-2.314.313.826h.004l-.317-.826Zm8.688-.225.882.069.058-.747-.727-.18-.213.858Zm-.216 2.772-.165.87.97.183.077-.984-.882-.069Zm-2.358-1.134c-1.327 0-2.443.141-3.258.5-.417.183-.797.442-1.074.807a2.081 2.081 0 0 0-.421 1.278h1.768c0-.103.026-.16.063-.21.046-.06.15-.156.376-.256.475-.209 1.294-.35 2.546-.35v-1.77Zm-4.753 2.585c0 .91.408 1.66 1.17 2.158l.966-1.482c-.263-.171-.367-.365-.367-.676h-1.77Zm1.18 2.164c.722.457 1.675.63 2.744.63v-1.77c-.923 0-1.484-.156-1.798-.355l-.947 1.495Zm2.744.63c1.05 0 2.075-.085 3.076-.255l-.296-1.744c-.9.153-1.826.23-2.78.23v1.768Zm2.044-1.107.06 2.72 1.768-.04-.06-2.72-1.768.04Zm.72 1.845c-1.012.266-2.127.403-3.351.403v1.769c1.355 0 2.624-.151 3.8-.461l-.45-1.71Zm-3.351.403c-1.25 0-2.26-.098-3.049-.28l-.397 1.724c.962.221 2.116.325 3.446.325v-1.769Zm-3.054-.28c-.845-.19-1.454-.39-1.86-.589l-.777 1.59c.584.285 1.344.522 2.25.724l.387-1.726Zm-1.86-.589a5.384 5.384 0 0 1-1.13-.726l-1.144 1.349c.442.375.943.696 1.497.966l.776-1.589Zm-1.13-.727c-.602-.508-.91-1.172-.905-2.084l-1.769-.009c-.007 1.391.497 2.57 1.532 3.444l1.141-1.351Zm-.905-2.088c0-.595.117-1.104.333-1.546l-1.588-.778c-.348.71-.514 1.49-.514 2.324h1.769Zm.332-1.545c.403-.818 1.113-1.453 2.232-1.878l-.627-1.653c-1.46.554-2.558 1.462-3.192 2.75l1.587.781Zm2.236-1.879c1.176-.451 2.49-.684 3.949-.684v-1.768c-1.65 0-3.18.262-4.583.801l.634 1.651Zm3.949-.684c1.489 0 2.89.166 4.21.492l.425-1.716a19.201 19.201 0 0 0-4.635-.544v1.768Zm3.54-.435-.216 2.773 1.764.137.216-2.772-1.764-.138Zm.83 1.973c-.92-.175-1.762-.267-2.522-.267v1.77c.622 0 1.352.075 2.193.234l.33-1.737Zm8.63 1.412-.005.885.898.005-.01-.899-.883.01Zm-.38-1.148-.602.648.008.007.594-.655Zm-2.203.086.613.638.006-.006-.619-.632Zm-.535 1.045-.873-.143-.168 1.022 1.036.006.005-.885Zm6.503 4.716.534.704.318-.24.03-.398-.882-.066Zm-1.909.708-.19-.864-.005.001.195.863Zm-6.632-.242-.302.831.007.003.295-.834Zm-1.512-.803-.549.693.011.008.538-.701Zm-1.01-1.27-.793.392.002.004.79-.396Zm1.036-5.363.588.66-.588-.66Zm8.084-.959.354-.81-.009-.004-.345.814Zm2.03 1.866-.796.387.002.005.794-.392Zm.345 1.546.882.064.002-.032v-.032h-.884Zm-.104 1.425-.004.884.826.004.06-.824-.882-.064Zm-7.004-.035.005-.884-1.154-.006.294 1.116.855-.226Zm1.002 1.235-.435.77.003.002.432-.772Zm5.372-.302v-.884h-.177l-.163.068.34.816Zm.466 0 .882.066.071-.95h-.953v.884Zm-2.665-2.514c-.007-.64-.154-1.326-.67-1.794l-1.189 1.31c-.01-.01.01.002.036.078.026.081.052.216.054.425l1.769-.019Zm-.663-1.787c-.464-.431-1.073-.573-1.672-.573v1.768c.344 0 .45.083.469.1l1.203-1.295Zm-1.672-.573c-.659 0-1.271.206-1.75.675l1.237 1.264c.097-.095.239-.17.513-.17v-1.77Zm-1.744.67a2.697 2.697 0 0 0-.796 1.539l1.745.287a.93.93 0 0 1 .276-.55l-1.225-1.277Zm.072 2.567 3.118.017.01-1.769-3.118-.017-.01 1.769Zm5.974 3.126c-.194.147-.667.352-1.565.55l.38 1.727c.934-.206 1.733-.473 2.253-.868l-1.068-1.41Zm-1.57.55c-.857.194-1.68.29-2.473.29v1.768c.934 0 1.89-.112 2.864-.333l-.39-1.725Zm-2.473.29c-.834 0-1.52-.04-2.067-.114l-.236 1.753c.65.088 1.42.13 2.303.13v-1.77Zm-2.067-.114a8.02 8.02 0 0 1-1.603-.389l-.589 1.668a9.787 9.787 0 0 0 1.956.474l.236-1.753Zm-1.596-.386a4.728 4.728 0 0 1-1.275-.674l-1.076 1.404c.504.386 1.09.694 1.748.932l.603-1.662Zm-1.264-.666a2.818 2.818 0 0 1-.768-.971l-1.582.79a4.584 4.584 0 0 0 1.252 1.568l1.098-1.387Zm-.767-.968c-.186-.376-.297-.86-.297-1.482H33.17c0 .83.148 1.595.48 2.266l1.585-.784Zm-.297-1.482c0-.622.113-1.171.325-1.66l-1.623-.704a5.884 5.884 0 0 0-.47 2.364h1.769Zm.325-1.66c.223-.514.496-.894.804-1.168L34.89 34c-.532.473-.944 1.078-1.25 1.785l1.622.704Zm.805-1.169c.95-.847 2.4-1.339 4.49-1.339v-1.768c-2.345 0-4.28.55-5.667 1.787l1.177 1.32Zm4.49-1.339c.937 0 1.821.179 2.66.535l.69-1.629a8.5 8.5 0 0 0-3.35-.674v1.768Zm2.651.531c.783.342 1.289.826 1.588 1.442l1.59-.774c-.506-1.042-1.353-1.801-2.47-2.29l-.708 1.622Zm1.59 1.447c.166.334.255.714.255 1.154h1.768c0-.688-.141-1.34-.437-1.938l-1.586.783Zm.257 1.09-.104 1.425 1.764.128.104-1.425-1.764-.128Zm.783.605-7.005-.035-.008 1.769 7.004.034.009-1.769Zm-7.864 1.075c.207.784.712 1.378 1.422 1.78l.87-1.54c-.35-.198-.512-.427-.582-.691l-1.71.45Zm1.425 1.781c.718.401 1.615.562 2.617.562v-1.769c-.84 0-1.4-.139-1.753-.337l-.864 1.544Zm2.617.562c1.076 0 2.257-.291 3.527-.82l-.68-1.632c-1.137.473-2.08.683-2.847.683v1.769Zm3.187-.752h.466v-1.768h-.466v1.768Zm-.416-.95-.164 2.194 1.764.132.164-2.194-1.764-.132Z" fill="#F8D24E"/></svg>